<?xml version="1.0" standalone="no"?>
<!DOCTYPE svg PUBLIC "-//W3C//DTD SVG 20010904//EN"
 "http://www.w3.org/TR/2001/REC-SVG-20010904/DTD/svg10.dtd">
<svg version="1.0" xmlns="http://www.w3.org/2000/svg"
 width="392.000000pt" height="398.000000pt" viewBox="0 0 392.000000 398.000000"
 preserveAspectRatio="xMidYMid meet">
<metadata>
Created by potrace 1.16, written by Peter Selinger 2001-2019
</metadata>
<g transform="translate(0.000000,398.000000) scale(0.100000,-0.100000)"
fill="#000000" stroke="none">
<path d="M3100 3651 c-86 -28 -137 -86 -147 -169 l-5 -47 68 3 c66 4 70 5 84
35 25 53 100 47 100 -8 0 -12 -15 -42 -33 -66 -45 -58 -67 -102 -67 -133 0
-23 3 -24 65 -28 63 -3 65 -2 74 24 5 15 33 55 61 89 60 71 70 94 70 152 0 54
-35 108 -86 132 -42 20 -146 29 -184 16z"/>
<path d="M1805 3594 c-93 -15 -211 -52 -290 -92 -207 -106 -346 -313 -370
-550 l-6 -64 23 16 c52 37 53 33 50 -179 l-3 -194 -27 11 c-15 7 -33 18 -39
27 -7 8 -14 13 -16 10 -2 -2 -13 -44 -25 -94 -15 -61 -46 -138 -96 -240 -92
-184 -100 -216 -93 -348 6 -115 24 -192 67 -281 l29 -61 913 2 912 2 22 44
c59 115 90 287 73 406 -7 51 -27 102 -89 226 -54 109 -86 189 -101 250 -12 50
-23 91 -24 93 -2 2 -20 -9 -41 -23 -22 -15 -41 -22 -46 -17 -5 5 -8 57 -6 116
2 58 0 106 -4 106 -4 0 -33 -12 -65 -26 -88 -39 -186 -75 -191 -70 -4 4 55
119 175 346 19 35 22 50 14 67 -20 43 -51 196 -51 248 l0 54 -80 56 c-149 105
-301 156 -480 160 -58 2 -118 1 -135 -1z m32 -679 c55 -74 120 -137 198 -191
94 -66 250 -119 396 -136 l99 -12 0 -54 c0 -166 -221 -415 -418 -473 l-43 -12
3 -66 3 -66 67 -45 c37 -25 67 -48 68 -52 0 -4 -24 -20 -52 -34 -29 -15 -95
-56 -146 -91 l-93 -64 -129 83 c-70 46 -136 88 -146 95 -21 13 -24 10 76 79
l45 31 0 62 0 62 -87 37 c-47 20 -84 40 -82 43 2 4 23 5 47 2 30 -4 48 -13 65
-34 37 -46 101 -39 128 13 13 25 13 35 3 59 -23 58 -85 66 -130 18 -29 -31
-30 -31 -96 -24 -36 4 -76 12 -87 17 -41 20 -133 137 -179 228 l-47 91 0 178
0 178 68 6 c37 4 101 16 142 28 77 21 250 105 250 122 0 19 20 -1 77 -78z"/>
<path d="M3113 3160 c-29 -18 -33 -25 -33 -65 0 -76 60 -114 122 -78 61 35 63
108 5 143 -40 25 -54 25 -94 0z"/>
<path d="M2848 865 l3 -334 -25 -26 c-21 -21 -34 -25 -86 -25 -45 0 -60 -3
-60 -14 0 -11 19 -15 76 -18 l77 -3 53 57 c29 32 55 67 59 78 3 11 -5 91 -19
178 -13 86 -35 221 -47 300 -12 78 -25 142 -28 142 -3 0 -5 -151 -3 -335z"/>
<path d="M962 1080 c-12 -63 -36 -202 -53 -309 -34 -220 -34 -218 35 -297 35
-40 46 -46 58 -37 7 7 45 13 83 15 84 4 89 21 8 28 -106 9 -97 -21 -103 372
l-5 343 -23 -115z"/>
<path d="M1490 465 c0 -13 52 -15 427 -13 330 2 427 6 431 16 3 9 -87 12 -427
12 -378 0 -431 -2 -431 -15z"/>
<path d="M640 349 c58 -11 140 -29 183 -41 71 -19 79 -24 84 -50 l6 -28 241
-1 c667 -2 1336 2 1381 8 47 7 48 7 20 15 -21 5 -16 6 20 3 47 -4 49 -4 30 11
-14 11 -15 15 -5 13 8 -1 23 1 33 6 9 4 33 5 52 3 19 -2 35 0 35 5 0 16 102
-1 119 -20 15 -16 15 -16 -4 -3 -15 11 -14 8 4 -13 23 -25 30 -27 108 -27 l84
0 10 30 c8 22 18 31 42 34 18 3 50 8 72 12 76 14 226 3 253 -18 21 -18 14 40
-8 62 -20 20 -33 20 -1442 19 l-1423 -1 105 -19z"/>
</g>
</svg>
