<?xml version="1.0" standalone="no"?>
<!DOCTYPE svg PUBLIC "-//W3C//DTD SVG 20010904//EN"
 "http://www.w3.org/TR/2001/REC-SVG-20010904/DTD/svg10.dtd">
<svg version="1.0" xmlns="http://www.w3.org/2000/svg"
 width="392.000000pt" height="398.000000pt" viewBox="0 0 392.000000 398.000000"
 preserveAspectRatio="xMidYMid meet">

<g transform="translate(0.000000,398.000000) scale(0.100000,-0.100000)"
fill="#000000" stroke="none">
<path d="M3100 3651 c-86 -28 -137 -86 -147 -169 l-5 -47 68 3 c66 4 70 5 84
35 25 53 100 47 100 -8 0 -12 -15 -42 -33 -66 -45 -58 -67 -102 -67 -133 0
-23 3 -24 65 -28 63 -3 65 -2 74 24 5 15 33 55 61 89 60 71 70 94 70 152 0 54
-35 108 -86 132 -42 20 -146 29 -184 16z"/>
<path d="M1697 3565 c-226 -57 -391 -185 -478 -370 -34 -71 -69 -203 -69 -257
0 -35 2 -38 19 -28 46 24 46 21 43 -185 l-3 -194 -27 11 c-15 7 -32 18 -39 26
-10 12 -13 10 -19 -14 -27 -120 -45 -168 -114 -309 -105 -215 -117 -284 -81
-461 11 -51 34 -121 52 -158 l34 -66 907 -3 908 -2 34 75 c59 130 82 315 52
425 -7 28 -45 113 -84 191 -66 131 -112 258 -112 311 0 29 -1 29 -46 -2 -22
-15 -41 -22 -46 -17 -5 5 -8 57 -6 116 2 58 0 106 -4 106 -4 0 -33 -12 -65
-26 -88 -39 -186 -75 -191 -70 -4 4 55 119 175 346 19 35 22 50 14 67 -19 41
-51 195 -51 243 0 47 -2 50 -57 94 -32 25 -94 64 -138 86 -120 61 -206 81
-370 86 -125 3 -151 1 -238 -21z m140 -650 c55 -74 120 -137 198 -191 94 -66
250 -119 396 -136 l99 -12 0 -54 c0 -166 -221 -415 -418 -473 l-43 -12 3 -66
3 -66 67 -45 c37 -25 67 -48 68 -52 0 -4 -24 -20 -52 -34 -29 -15 -95 -56
-146 -91 l-93 -64 -129 83 c-70 46 -136 88 -146 95 -21 13 -24 10 76 79 l45
31 0 62 0 62 -87 37 c-47 20 -84 40 -82 43 2 4 23 5 47 2 30 -4 48 -13 65 -34
37 -46 101 -39 128 13 13 25 13 35 3 59 -23 58 -85 66 -130 18 -29 -31 -30
-31 -96 -24 -36 4 -76 12 -87 17 -41 20 -133 137 -179 228 l-47 91 0 178 0
178 68 6 c37 4 101 16 142 28 77 21 250 105 250 122 0 19 20 -1 77 -78z"/>
<path d="M3113 3160 c-29 -18 -33 -25 -33 -65 0 -76 60 -114 122 -78 61 35 63
108 5 143 -40 25 -54 25 -94 0z"/>
<path d="M2848 865 l3 -334 -25 -26 c-21 -21 -34 -25 -86 -25 -47 0 -60 -3
-60 -15 0 -12 16 -15 80 -15 l79 0 52 62 51 62 -6 71 c-3 38 -11 95 -16 125
-5 30 -21 134 -36 230 -14 96 -29 180 -33 187 -3 6 -5 -139 -3 -322z"/>
<path d="M978 1150 c-29 -152 -88 -525 -88 -556 1 -46 11 -67 63 -124 28 -30
42 -39 51 -31 6 5 43 11 81 13 84 4 89 21 8 28 -105 9 -97 -20 -103 367 -3
186 -8 322 -12 303z"/>
<path d="M1490 465 c0 -13 54 -15 425 -15 371 0 425 2 425 15 0 13 -54 15
-425 15 -371 0 -425 -2 -425 -15z"/>
<path d="M646 361 c-3 -5 29 -14 72 -21 108 -17 196 -50 201 -75 2 -11 8 -23
15 -27 13 -9 1490 -11 1535 -2 17 4 31 12 31 19 0 22 44 34 152 42 123 10 195
-1 212 -32 17 -30 27 -35 79 -35 57 0 87 14 87 40 0 23 17 29 139 44 72 10
107 10 141 2 83 -20 125 -1 82 37 -17 16 -127 17 -1380 17 -773 0 -1363 -4
-1366 -9z"/>
</g>
</svg>
