<?xml version="1.0" standalone="no"?>
<!DOCTYPE svg PUBLIC "-//W3C//DTD SVG 20010904//EN"
 "http://www.w3.org/TR/2001/REC-SVG-20010904/DTD/svg10.dtd">
<svg version="1.0" xmlns="http://www.w3.org/2000/svg"
 width="1280.000000pt" height="1280.000000pt" viewBox="0 0 1280.000000 1280.000000"
 preserveAspectRatio="xMidYMid meet">
<metadata>
Created by potrace 1.16, written by Peter Selinger 2001-2019
</metadata>
<g transform="translate(0.000000,1280.000000) scale(0.100000,-0.100000)"
fill="#000000" stroke="none">
<path d="M522 12780 c-243 -64 -433 -254 -502 -502 -20 -73 -20 -79 -20 -5874
0 -5703 0 -5802 19 -5876 65 -252 257 -444 509 -509 74 -19 145 -19 3189 -19
l3113 0 0 2475 0 2475 -830 0 -830 0 0 970 0 970 830 0 830 0 0 698 c0 761 9
1017 40 1234 123 846 552 1469 1235 1794 360 171 777 254 1279 254 347 0 1011
-32 1311 -64 l110 -11 3 -867 2 -868 -565 0 c-583 0 -698 -6 -842 -41 -328
-80 -486 -254 -550 -602 -12 -66 -16 -225 -20 -804 l-5 -723 961 0 960 0 -4
-27 c-3 -16 -59 -448 -125 -962 -66 -513 -123 -938 -126 -942 -3 -5 -378 -9
-835 -9 l-829 0 0 -2475 0 -2475 1683 0 c1632 0 1686 1 1759 19 251 64 445
258 509 509 19 74 19 173 19 5872 0 5733 0 5798 -20 5874 -63 246 -260 443
-506 506 -76 20 -140 20 -5878 19 -5671 0 -5803 -1 -5874 -19z"/>
</g>
</svg>
