<?xml version="1.0" standalone="no"?>
<!DOCTYPE svg PUBLIC "-//W3C//DTD SVG 20010904//EN"
 "http://www.w3.org/TR/2001/REC-SVG-20010904/DTD/svg10.dtd">
<svg version="1.0" xmlns="http://www.w3.org/2000/svg"
 width="1280.000000pt" height="1280.000000pt" viewBox="0 0 1280.000000 1280.000000"
 preserveAspectRatio="xMidYMid meet">
<metadata>
Created by potrace 1.16, written by Peter Selinger 2001-2019
</metadata>
<g transform="translate(0.000000,1280.000000) scale(0.100000,-0.100000)"
fill="#000000" stroke="none">
<path d="M4008 12789 c-394 -11 -932 -37 -1118 -55 -756 -72 -1340 -279 -1780
-630 -108 -86 -325 -303 -413 -414 -266 -331 -455 -762 -557 -1270 -68 -339
-83 -505 -122 -1335 -15 -337 -23 -3822 -8 -3839 7 -10 7 -22 0 -41 -19 -51
-4 -36 25 24 26 54 32 60 66 66 35 6 42 13 71 68 25 48 39 63 58 65 19 2 33
18 58 63 19 33 36 58 40 55 3 -4 0 -12 -6 -18 -15 -15 -16 -31 0 -22 7 4 8 3
4 -5 -4 -6 -12 -8 -18 -5 -8 5 -9 1 -5 -10 5 -11 3 -15 -5 -10 -8 5 -9 2 -5
-9 4 -10 2 -16 -5 -14 -6 1 -12 -3 -15 -9 -2 -6 4 -11 12 -11 10 0 32 28 53
64 28 48 42 63 59 63 17 0 32 17 64 70 23 38 43 70 46 70 2 0 1 -4 -2 -10 -3
-5 2 -10 13 -10 13 0 32 20 56 60 29 46 43 60 61 60 18 0 32 14 61 60 20 33
40 60 45 60 17 0 18 -19 2 -29 -10 -6 -15 -11 -10 -11 4 0 -4 -18 -18 -40 -24
-38 -24 -40 -5 -40 14 0 32 19 57 60 30 47 43 60 63 60 19 0 33 12 60 55 19
30 39 55 44 55 8 0 -3 -20 -41 -75 -16 -24 -17 -35 0 -35 6 0 27 24 46 53 18
29 44 58 57 64 13 6 22 7 18 2 -3 -5 -1 -9 4 -9 5 0 26 25 46 55 20 30 41 55
46 55 16 0 12 -17 -6 -24 -8 -3 -13 -10 -10 -15 3 -5 -1 -12 -10 -15 -8 -3
-13 -10 -10 -15 3 -5 -2 -12 -11 -15 -12 -5 -14 -9 -5 -18 6 -6 13 -10 15 -7
2 2 20 28 41 57 21 28 44 52 51 52 8 0 19 9 25 20 6 11 17 20 24 20 8 0 26 16
40 35 15 20 31 33 36 30 4 -3 26 20 49 50 23 30 44 55 48 55 6 0 5 -1 -46 -67
l-33 -43 34 0 c28 0 38 8 68 51 l35 50 62 -4 62 -5 40 52 39 51 6 660 c11
1148 33 1531 107 1899 106 525 322 950 658 1299 411 426 916 671 1576 766 364
53 678 63 2140 68 2013 8 2526 -13 2994 -123 372 -87 719 -244 981 -444 608
-465 935 -1104 1014 -1988 32 -353 39 -632 43 -1947 7 -1841 -10 -2370 -88
-2805 -80 -443 -253 -852 -491 -1162 -92 -119 -297 -329 -413 -423 -400 -322
-912 -513 -1540 -575 -203 -19 -476 -30 -1090 -41 -335 -6 -611 -11 -611 -12
-1 -1 9 -56 22 -122 80 -405 114 -767 114 -1212 l0 -271 638 -1 c1043 -2 1941
30 2382 85 585 73 1105 255 1470 513 189 134 402 335 555 526 247 306 438 740
539 1224 71 337 94 584 128 1396 18 428 18 4882 0 5310 -35 829 -53 1023 -127
1390 -100 490 -288 915 -551 1245 -88 109 -305 326 -414 414 -421 337 -982
543 -1685 620 -263 29 -651 49 -1280 66 -418 11 -4293 11 -4717 -1z"/>
<path d="M5030 10259 c-885 -20 -1192 -68 -1555 -244 -150 -72 -263 -152 -388
-274 -209 -203 -335 -413 -426 -708 -106 -345 -129 -665 -138 -1920 l-6 -822
44 -11 c81 -21 353 -112 483 -162 329 -124 680 -295 1038 -505 4 -2 1 14 -7
36 -22 64 -62 237 -82 356 -26 158 -26 573 0 730 94 560 336 1024 734 1405
378 362 853 588 1393 661 120 17 456 17 580 1 673 -88 1257 -423 1660 -952
680 -893 660 -2137 -47 -3015 -327 -406 -805 -712 -1304 -834 -207 -51 -299
-63 -534 -68 -226 -5 -407 8 -550 42 -33 7 -61 12 -63 10 -2 -2 14 -27 35 -57
269 -364 562 -901 738 -1350 l38 -98 456 0 c688 0 1300 22 1541 55 354 49 637
147 861 297 113 76 298 252 386 368 77 102 189 325 237 470 130 397 155 843
155 2735 0 1852 -24 2263 -155 2663 -92 281 -198 457 -393 653 -192 191 -369
299 -636 388 -320 106 -563 132 -1385 151 -482 11 -2220 10 -2710 -1z m4064
-794 c75 -20 178 -74 238 -125 64 -55 131 -160 162 -252 32 -93 36 -241 10
-329 -105 -353 -482 -518 -814 -357 -88 43 -204 159 -247 249 -51 103 -66 178
-60 289 9 160 64 279 181 387 112 105 227 151 381 152 52 1 116 -6 149 -14z"/>
<path d="M6169 7935 c-439 -69 -830 -322 -1075 -696 -461 -703 -294 -1631 385
-2138 169 -126 410 -234 614 -276 353 -71 698 -26 1022 135 434 215 727 588
842 1070 37 155 44 436 15 605 -114 665 -630 1183 -1290 1296 -135 23 -379 25
-513 4z"/>
</g>
</svg>
