<?xml version="1.0" standalone="no"?>
<!DOCTYPE svg PUBLIC "-//W3C//DTD SVG 20010904//EN"
 "http://www.w3.org/TR/2001/REC-SVG-20010904/DTD/svg10.dtd">
<svg version="1.0" xmlns="http://www.w3.org/2000/svg"
 width="1280.000000pt" height="899.000000pt" viewBox="0 0 1280.000000 899.000000"
 preserveAspectRatio="xMidYMid meet">
<metadata>
Created by potrace 1.16, written by Peter Selinger 2001-2019
</metadata>
<g transform="translate(0.000000,899.000000) scale(0.100000,-0.100000)"
fill="#000000" stroke="none">
<path d="M4650 8980 c-701 -14 -1686 -45 -2030 -65 -883 -51 -1132 -82 -1367
-176 -358 -142 -643 -378 -813 -673 -144 -251 -236 -553 -300 -986 -106 -725
-146 -1503 -137 -2685 10 -1394 75 -2344 192 -2805 129 -507 303 -831 559
-1039 237 -192 488 -303 831 -366 471 -86 1063 -118 3090 -167 704 -17 3199
-17 3710 0 1045 35 2132 91 2755 143 379 31 744 208 1021 496 139 145 232 300
333 556 119 302 186 637 235 1172 69 743 66 655 66 2100 0 1393 -1 1420 -50
2020 -59 709 -196 1227 -430 1631 -196 336 -612 606 -1065 688 -322 59 -1156
106 -2640 147 -472 13 -3405 20 -3960 9z m1184 -2937 c1577 -822 2654 -1389
2674 -1408 11 -10 -8 -25 -105 -78 -291 -160 -763 -405 -1663 -862 -631 -321
-1213 -622 -1484 -769 -88 -47 -163 -86 -168 -86 -4 0 -8 808 -8 1796 0 1667
1 1796 17 1790 9 -4 341 -176 737 -383z"/>
</g>
</svg>
